<svg xmlns="http://www.w3.org/2000/svg" width="28.615" height="28.608" viewBox="0 0 28.615 28.608"><g transform="translate(-37.222 -315.875)"><path d="M38.246,327.111h6.13a1.023,1.023,0,0,1,1.023,1.024V343.46a1.023,1.023,0,0,1-1.023,1.023h-6.13a1.023,1.023,0,0,1-1.024-1.023V328.135A1.027,1.027,0,0,1,38.246,327.111Z" fill="#fff"/><path d="M48.464,315.875h6.13a1.023,1.023,0,0,1,1.024,1.024V343.46a1.023,1.023,0,0,1-1.024,1.023h-6.13a1.023,1.023,0,0,1-1.023-1.023V316.893A1.022,1.022,0,0,1,48.464,315.875Z" fill="#fff"/><path d="M58.683,324.046h6.13a1.023,1.023,0,0,1,1.024,1.024v18.39a1.023,1.023,0,0,1-1.024,1.023h-6.13a1.023,1.023,0,0,1-1.024-1.023V325.07A1.02,1.02,0,0,1,58.683,324.046Z" fill="#fff"/></g></svg>