<?xml version="1.0" encoding="utf-8"?>
<!-- Generator: Adobe Illustrator 25.1.0, SVG Export Plug-In . SVG Version: 6.00 Build 0)  -->
<svg version="1.1" id="Capa_1" focusable="false" xmlns="http://www.w3.org/2000/svg" xmlns:xlink="http://www.w3.org/1999/xlink"
	 x="0px" y="0px" width="31px" height="32.4px" viewBox="0 0 31 32.4" style="enable-background:new 0 0 31 32.4;"
	 xml:space="preserve">
<style type="text/css">
	.st0{fill:#FFFFFF;}
</style>
<path class="st0" d="M30.7,20.1l-2.8-1.6c0.3-1.5,0.3-3.1,0-4.6l2.8-1.6c0.3-0.2,0.5-0.6,0.4-0.9c-0.7-2.3-2-4.4-3.6-6.2
	c-0.2-0.3-0.7-0.3-1-0.2l-2.8,1.6c-1.2-1-2.5-1.8-4-2.3V1.2c0-0.4-0.3-0.7-0.6-0.8c-2.4-0.5-4.9-0.5-7.1,0c-0.4,0.1-0.6,0.4-0.6,0.8
	v3.2c-1.4,0.5-2.8,1.3-4,2.3L4.6,5.1c-0.3-0.2-0.7-0.1-1,0.2C2,6.9,0.8,9,0.1,11.4c-0.1,0.4,0,0.7,0.4,0.9l2.8,1.6
	C3,15.4,3,17,3.2,18.5l-2.8,1.6C0.1,20.3,0,20.7,0.1,21c0.7,2.3,2,4.4,3.6,6.2c0.2,0.3,0.7,0.3,1,0.2l2.8-1.6c1.2,1,2.5,1.8,4,2.3
	v3.2c0,0.4,0.3,0.7,0.6,0.8c2.4,0.5,4.9,0.5,7.1,0c0.4-0.1,0.6-0.4,0.6-0.8V28c1.4-0.5,2.8-1.3,4-2.3l2.8,1.6c0.3,0.2,0.7,0.1,1-0.2
	c1.6-1.7,2.8-3.8,3.6-6.2C31.1,20.6,31,20.3,30.7,20.1z M15.6,21.4c-2.9,0-5.2-2.3-5.2-5.2s2.3-5.2,5.2-5.2s5.2,2.3,5.2,5.2
	S18.4,21.4,15.6,21.4z"/>
</svg>
