<?xml version="1.0" encoding="utf-8"?>
<!-- Generator: Adobe Illustrator 25.1.0, SVG Export Plug-In . SVG Version: 6.00 Build 0)  -->
<svg version="1.1" id="Capa_1" focusable="false" xmlns="http://www.w3.org/2000/svg" xmlns:xlink="http://www.w3.org/1999/xlink"
	 x="0px" y="0px" width="31px" height="27.1px" viewBox="0 0 31 27.1" style="enable-background:new 0 0 31 27.1;"
	 xml:space="preserve">
<style type="text/css">
	.st0{fill:#FFFFFF;}
</style>
<path class="st0" d="M28.1,27.1H2.9c-1.6,0-2.9-1.3-2.9-2.9V2.9C0,1.3,1.3,0,2.9,0h25.2C29.7,0,31,1.3,31,2.9v21.3
	C31,25.8,29.7,27.1,28.1,27.1z M7.8,5.3c-1.3,0-2.4,1.1-2.4,2.4s1.1,2.4,2.4,2.4s2.4-1.1,2.4-2.4S9.1,5.3,7.8,5.3z M7.8,11.1
	c-1.3,0-2.4,1.1-2.4,2.4S6.4,16,7.8,16s2.4-1.1,2.4-2.4S9.1,11.1,7.8,11.1z M7.8,17c-1.3,0-2.4,1.1-2.4,2.4s1.1,2.4,2.4,2.4
	s2.4-1.1,2.4-2.4S9.1,17,7.8,17z M25.2,8.7V6.8c0-0.4-0.3-0.7-0.7-0.7H12.4c-0.4,0-0.7,0.3-0.7,0.7v1.9c0,0.4,0.3,0.7,0.7,0.7h12.1
	C24.9,9.4,25.2,9.1,25.2,8.7z M25.2,14.5v-1.9c0-0.4-0.3-0.7-0.7-0.7H12.4c-0.4,0-0.7,0.3-0.7,0.7v1.9c0,0.4,0.3,0.7,0.7,0.7h12.1
	C24.9,15.3,25.2,14.9,25.2,14.5z M25.2,20.3v-1.9c0-0.4-0.3-0.7-0.7-0.7H12.4c-0.4,0-0.7,0.3-0.7,0.7v1.9c0,0.4,0.3,0.7,0.7,0.7
	h12.1C24.9,21.1,25.2,20.7,25.2,20.3z"/>
</svg>
