<svg xmlns="http://www.w3.org/2000/svg" width="32.471" height="32.47" viewBox="0 0 32.471 32.47"><path d="M63.009,233.513a16.234,16.234,0,1,0,4.756,11.48A16.125,16.125,0,0,0,63.009,233.513ZM52.548,252.058h-.067v2.1a.952.952,0,1,1-1.9,0v-2.1h-2.1a.952.952,0,1,1,0-1.9h4.075a2.105,2.105,0,1,0,0-4.211H50.51a4.008,4.008,0,0,1,0-8.016h.068v-2.106a.952.952,0,0,1,1.9,0v2.106h2.1a.952.952,0,1,1,0,1.9H50.51a2.106,2.106,0,0,0,0,4.211h2.038a4.008,4.008,0,1,1,0,8.016Z" transform="translate(-35.294 -228.758)" fill="#fff"/></svg>