<svg xmlns="http://www.w3.org/2000/svg" xmlns:xlink="http://www.w3.org/1999/xlink" width="16.667" height="16.667" viewBox="0 0 16.667 16.667"><defs><clipPath id="a"><path d="M8.333,16.667a8.334,8.334,0,1,1,8.334-8.334A8.343,8.343,0,0,1,8.333,16.667Zm0-9.584a.834.834,0,0,0-.833.833v3.75a.833.833,0,0,0,1.667,0V7.916A.834.834,0,0,0,8.333,7.083Zm0-2.916A.833.833,0,1,0,9.167,5,.834.834,0,0,0,8.333,4.167Z" transform="translate(0 0)" fill="rgba(5,16,51,0)"/></clipPath></defs><g transform="translate(-1.667 -1.667)"><g transform="translate(1.667 1.667)"><path d="M8.333,16.667a8.334,8.334,0,1,1,8.334-8.334A8.343,8.343,0,0,1,8.333,16.667Zm0-9.584a.834.834,0,0,0-.833.833v3.75a.833.833,0,0,0,1.667,0V7.916A.834.834,0,0,0,8.333,7.083Zm0-2.916A.833.833,0,1,0,9.167,5,.834.834,0,0,0,8.333,4.167Z" transform="translate(0 0)" fill="rgba(5,16,51,0)"/><g clip-path="url(#a)"><g transform="translate(-1.667 -1.667)"><rect width="20" height="20" transform="translate(0 0)" fill="#2e999e"/></g></g></g></g></svg>