<svg id="Grupo_82" data-name="Grupo 82" xmlns="http://www.w3.org/2000/svg" xmlns:xlink="http://www.w3.org/1999/xlink" width="8.333" height="8.333" viewBox="0 0 8.333 8.333">
  <defs>
    <clipPath id="clip-path">
      <path id="Mask" d="M6.91,8.089,4.166,5.345,1.423,8.089A.834.834,0,0,1,.244,6.91L2.987,4.166.244,1.423A.834.834,0,0,1,1.423.244L4.166,2.987,6.91.244A.834.834,0,0,1,8.089,1.423L5.345,4.166,8.089,6.91A.834.834,0,0,1,6.91,8.089Z" fill="#8fb9bf"/>
    </clipPath>
  </defs>
  <path id="Mask-2" data-name="Mask" d="M6.91,8.089,4.166,5.345,1.423,8.089A.834.834,0,0,1,.244,6.91L2.987,4.166.244,1.423A.834.834,0,0,1,1.423.244L4.166,2.987,6.91.244A.834.834,0,0,1,8.089,1.423L5.345,4.166,8.089,6.91A.834.834,0,0,1,6.91,8.089Z" fill="#8fb9bf"/>
  <g id="Enmascarar_grupo_82" data-name="Enmascarar grupo 82" clip-path="url(#clip-path)">
    <g id="_Icon_Color" data-name="↳🎨 Icon Color" transform="translate(-5.834 -5.834)">
      <rect id="Black_Black-800" data-name="Black / Black-800" width="20" height="20" fill="#8fb9bf"/>
    </g>
  </g>
</svg>
