<svg xmlns="http://www.w3.org/2000/svg" width="9.268" height="7.693" viewBox="0 0 9.268 7.693"><g transform="translate(-104 -132)"><path d="M182.912,146l-3.012,3.012h1.77L184.682,146Z" transform="translate(-72.382 -13.351)" fill="none"/><path d="M118,146v2.461L120.461,146Z" transform="translate(-13.351 -13.351)" fill="none"/><path d="M240.314,161.314V158.9l-2.414,2.414Z" transform="translate(-127.694 -25.653)" fill="none"/><path d="M128.912,146l-3.012,3.012h1.585L130.5,146Z" transform="translate(-20.885 -13.351)" fill="none"/><path d="M112.949,132H104v7.693h.649V136.31h7.971v3.383h.649V132Zm-8.3.649h2.461l-2.461,2.461Zm1.951,3.012h-1.585l3.012-3.012h1.585Zm2.688,0h-1.77l3.012-3.012h1.77Zm3.332,0h-2.414l2.414-2.414Z" transform="translate(0)" fill="#fff"/></g></svg>