<svg xmlns="http://www.w3.org/2000/svg" width="30.575" height="27.088" viewBox="0 0 30.575 27.088"><path d="M40.4,166.787a.639.639,0,0,0,.64.685c.833,0,7.707-.01,7.707-.01l.012-6.316a.9.9,0,0,1,.9-1.039h3.193a.987.987,0,0,1,1.122,1.039l-.011,6.3h7.541a.792.792,0,0,0,.813-.852V154.947l-10.636-9.453L40.4,154.947Zm0,0" transform="translate(-36.242 -140.384)" fill="#fff"/><path d="M36.242,154.069s.956,1.768,3.05,0l12.486-10.564L63.491,154c2.42,1.745,3.326,0,3.326,0L51.778,140.384Zm0,0" transform="translate(-36.242 -140.384)" fill="#fff"/><path d="M63.2,143.477h-3.01l.01,3.653,3,2.546Zm0,0" transform="translate(-36.242 -140.384)" fill="#fff"/></svg>