<svg xmlns="http://www.w3.org/2000/svg" width="19.93" height="19.43" viewBox="0 0 19.93 19.43">
  <path id="Trazado_15" data-name="Trazado 15" d="M438.891,505.893h0a8.1,8.1,0,0,1,8.1,8.1h0v.012h0a8.1,8.1,0,0,1-.42,2.577c-.046.136-.094.266-.143.391h0a8.079,8.079,0,0,1-.9,1.672l4.717,4.239,0,0,.026.024h0a1.4,1.4,0,0,1,.108,1.906v0l-.029.033,0,.006-.024.026,0,0a1.4,1.4,0,0,1-1.906.108l0,0-.033-.028-.005,0-4.824-4.336c-.143.1-.289.2-.436.286-.2.123-.407.238-.619.343a8.056,8.056,0,0,1-3.612.847v0h0v0a8.105,8.105,0,0,1-8.105-8.1h0V514h0a8.105,8.105,0,0,1,8.1-8.1h.005Zm0,1.818h-.008A6.289,6.289,0,0,0,432.6,514h0v.008h0a6.289,6.289,0,0,0,6.286,6.283h.008A6.291,6.291,0,0,0,445.18,514h0v-.008h0a6.291,6.291,0,0,0-6.286-6.284Z" transform="translate(-430.783 -505.893)" fill="#8fb9bf"/>
</svg>
