<svg version="1.0" id="Layer_2" xmlns="http://www.w3.org/2000/svg" xmlns:xlink="http://www.w3.org/1999/xlink" x="0px" y="0px" style="enable-background:new 0 0 2039 2039;" xml:space="preserve" viewBox="753.8 753.8 531.37 531.4">
<style type="text/css">
	.st0{fill:#EEFAFA;}
	.st1{fill-rule:evenodd;clip-rule:evenodd;fill:#2F989C;}
	.st2{fill-rule:evenodd;clip-rule:evenodd;fill:#014548;}
	.st3{fill-rule:evenodd;clip-rule:evenodd;fill:#20696F;}
	.st4{fill:#014548;}
	.st5{fill:#FF911E;}
</style>
<g>
	<g>
		<path class="st0" d="M837.83,1285.17c-46.32,0-84-37.68-84-84V837.83c0-46.32,37.68-84,84-84h363.33c46.32,0,84,37.68,84,84    v363.33c0,46.32-37.68,84-84,84H837.83z"/>
		<path class="st0" d="M1201.17,1285.17H837.83c-46.39,0-84-37.61-84-84V837.83c0-46.39,37.61-84,84-84h363.33    c46.39,0,84,37.61,84,84v363.33C1285.17,1247.56,1247.56,1285.17,1201.17,1285.17z"/>
		<g>
			<g>
				<polygon class="st1" points="959.92,1105.59 1039.72,967.38 1119.51,1105.59     "/>
				<polygon class="st1" points="959.92,1105.59 1039.72,967.38 1119.51,1105.59     "/>
				<polygon class="st2" points="1039.72,967.38 1199.31,967.38 1119.51,1105.59     "/>
				<polygon class="st2" points="1199.31,967.38 1119.51,1105.59 1079.61,1036.48 1039.72,967.38     "/>
				<polygon class="st1" points="1039.72,967.38 1119.51,829.16 1199.31,967.38     "/>
				<polygon class="st1" points="1199.31,967.38 1119.51,829.16 1079.61,898.27 1039.72,967.38     "/>
				<polygon class="st3" points="959.92,829.16 1119.51,829.16 1039.72,967.38     "/>
				<polygon class="st3" points="1119.51,829.16 1039.72,967.38 959.92,829.16     "/>
			</g>
			<g>
				<polygon class="st4" points="874.14,1209.83 874.14,1019.82 959.92,1105.59 959.92,1209.83     "/>
				<polygon class="st4" points="874.14,1209.83 959.92,1209.83 959.92,1105.59 874.14,1019.82     "/>
				<polygon class="st5" points="874.14,976.92 874.14,829.17 959.92,829.17 959.92,1062.68     "/>
				<polygon class="st5" points="874.14,829.17 874.14,976.92 959.92,1062.68 959.92,829.17     "/>
			</g>
		</g>
	</g>
</g>
</svg>